<svg xmlns="http://www.w3.org/2000/svg" xmlns:xlink="http://www.w3.org/1999/xlink" width="500" height="557" viewBox="0 0 500 557">
    <defs>
        <path id="7ledun3tna" d="M0 0.144L86.064 0.144 86.064 82.091 0 82.091z"/>
    </defs>
    <g fill="none" fill-rule="evenodd" opacity=".36">
        <g>
            <g>
                <path fill="#FEFEFE" d="M491.125 419.288l23.771 28.958-28.91-3.66-22.291-30.008c-.135.46-.202 1.044-.202 1.752v25.407l-17.017-2.154v-16.255c0-4.907.726-8.8 2.197-11.703 1.49-2.947 3.995-5.313 7.587-7.108l-11.996-16.141 19.481-2.467 13.43 16.37 9.613-19.287 29.266-3.706-24.928 40.002zM25.58 222.819l13.631-18.89c1.765 1.563 3.343 2.762 4.726 3.599 2.948 1.78 5.806 2.659 8.553 2.633 2.72-.028 5.557-1.022 8.482-2.95l12.741-20.686-10.355-6.261 7.676-11.177 23.716 14.337-13.938 26.687c-1.738 3.328-3.246 6.947-4.512 10.87L67.69 247.5l-16.844-10.184 6.73-19.227-.272-.165c-2.525 3-5.365 5.406-8.52 7.186-3.228 1.817-6.516 2.838-9.84 3.035-3.368.197-6.438-.528-9.175-2.183-1.336-.808-2.732-1.857-4.19-3.143M514.649 503.489c-.548-1.635-1.558-2.758-3.046-3.378-1.517-.631-3.427-.69-5.768-.156l-35.354 8.06-5.286-15.758 37.998-5.086c5.245-.703 9.705-.574 13.516.315 3.622.845 6.568 2.338 8.921 4.467 2.295 2.077 3.964 4.713 5.049 7.946l9.317 27.778-14.489 8.185-10.858-32.373zm-35.639 31.843c-.98-2.924-1.421-5.54-1.319-7.832.098-2.27.46-4.084 1.081-5.448.612-1.343 1.242-2.306 1.891-2.893l20.07-6.216c.358 3.137 1.166 6.589 2.423 10.337l7.108 21.19-23.698 13.387-7.556-22.525z" transform="translate(0 -352) translate(0 351)"/>
                <g transform="translate(0 -352) translate(0 351) translate(0 .857)">
                    <mask id="n6r80gk7rb" fill="#fff">
                        <use xlink:href="#7ledun3tna"/>
                    </mask>
                    <path fill="#FEFEFE" d="M84.313 40.598L61.584 75.075 37.036 82.091 63.13 43.162 8.659 45.302 -0.001 0.144 46.449 9.399 46.413 28.933 86.064 31.465z" mask="url(#n6r80gk7rb)"/>
                </g>
                <path fill="#FEFEFE" d="M2.196 514.731L8.8 491.887c4.533 1.336 8.333 2.04 11.333 2.087 4.411-.047 7.58-1.386 9.448-3.935 1.797-2.453 2.591-6.081 2.44-10.683l-.663-20.263H13.42l1.58-10.27h27.927l4.638 27.061c2.053 11.98 1.34 22.462-2.804 30.02-4.634 8.452-12.412 13.098-22.919 13.168-5.826 0-12.443-1.476-19.646-4.341M89.548 340.18c1.58-.858 2.899-2.155 3.959-3.89 1.054-1.722 1.77-3.752 2.157-6.096l.759-4.613c1.459-8.858-.746-13.982-6.862-15.427-3.317-.785-6.071-.108-8.211 2.071-2.174 2.213-3.68 5.923-4.492 11.104l-.647 3.93c-.421 2.555-.36 4.875.18 6.95.534 2.06 1.505 3.701 2.9 4.923 1.378 1.208 3.044 1.9 4.989 2.084 1.913.182 3.665-.167 5.268-1.037m-24.063 11.632c-5.011-2.736-8.83-6.548-11.333-11.44-2.571-5.017-3.44-10.694-2.56-16.939l.38-2.757c.369-2.536 1.49-5.32 3.35-8.333 1.84-2.979 3.715-5.238 5.62-6.783.21-.136.697-.396 1.457-.775l-.082-.35c-1.481-.086-4.5-.206-9.168-.362l-2.612-16.494c6.11.372 12.886 1.277 20.202 2.664 6.905 1.312 13.047 2.804 18.507 4.47 10.208 3.114 17.008 7.516 20.946 13.211 3.764 5.445 4.912 12.17 3.564 20.35l-.733 4.454c-.784 4.763-2.464 8.86-5.077 12.344-2.666 3.553-6.12 6.283-10.441 8.186-4.488 1.975-9.656 2.904-15.601 2.725-6.113-.186-11.618-1.552-16.42-4.17M541.979 140.833L541.979 153.202 532.283 152.474 532.283 193.492 512.523 196.359 512.523 150.989 480.468 148.583 480.468 131.905z" transform="translate(0 -352) translate(0 351)"/>
            </g>
        </g>
    </g>
</svg>
