<svg xmlns="http://www.w3.org/2000/svg" xmlns:xlink="http://www.w3.org/1999/xlink" viewBox="0 0 500 740"><defs><style>.cls-1{fill:url(#linear-gradient);}.cls-2{fill:#fff;}.cls-3{fill:url(#linear-gradient-2);}.cls-4{fill:url(#linear-gradient-3);}.cls-5{fill:url(#linear-gradient-4);}.cls-6{fill:url(#linear-gradient-5);}</style><linearGradient id="linear-gradient" x1="250" x2="250" y2="740" gradientUnits="userSpaceOnUse"><stop offset="0" stop-color="#a96dde"/><stop offset="0.26" stop-color="#9b59d6"/><stop offset="0.79" stop-color="#7827c1"/><stop offset="1" stop-color="#6911b8"/></linearGradient><linearGradient id="linear-gradient-2" x1="74.28" y1="530.54" x2="74.28" y2="800.28" xlink:href="#linear-gradient"/><linearGradient id="linear-gradient-3" x1="383.09" y1="712.37" x2="383.09" y2="549.68" xlink:href="#linear-gradient"/><linearGradient id="linear-gradient-4" x1="-15.22" y1="326.28" x2="33.3" y2="438.23" gradientUnits="userSpaceOnUse"><stop offset="0" stop-color="#a96dde"/><stop offset="0.37" stop-color="#a76bdd"/><stop offset="0.55" stop-color="#a263da"/><stop offset="0.69" stop-color="#9956d5"/><stop offset="0.81" stop-color="#8c43cd"/><stop offset="0.91" stop-color="#7b2bc3"/><stop offset="1" stop-color="#6911b8"/></linearGradient><linearGradient id="linear-gradient-5" x1="-341.79" y1="436.46" x2="-293.27" y2="548.41" gradientTransform="matrix(-1, 0, 0, 1, 173.42, 0)" gradientUnits="userSpaceOnUse"><stop offset="0" stop-color="#a96dde"/><stop offset="0.21" stop-color="#a669dc"/><stop offset="0.42" stop-color="#9e5ed8"/><stop offset="0.62" stop-color="#914ad0"/><stop offset="0.83" stop-color="#7e2fc4"/><stop offset="1" stop-color="#6911b8"/></linearGradient></defs><g id="Layer_2" data-name="Layer 2"><rect class="cls-1" width="500" height="740"/><path class="cls-2" d="M500,319.43V740H0V319.43C40,264,110,196,249.56,196,390,196,460,264,500,319.43Z"/><path class="cls-3" d="M0,504.27s25.41,58.63,76.44,62.58c0,0,7.29,1.52,25.52-5.77s37.45,3.19,44.05,18.45c7.26,16.78,1.22,50.25-47.09,59.06s-48.15-27.72-62-40.1C28.69,591.1,20,589.38,0,600Z"/><path class="cls-4" d="M500,619.86s-8,23.7-24.11,23.7-21.43-9.27-35.56-9.65-29.76,4.63-46.47,26.2-27.64,29.47-49.52,31.3-25.11-8.21-45.16-7.3S250,720.24,277.3,740H500Z"/><path class="cls-5" d="M0,419.39c21,0,33.42-20.63,33.42-33.42,0-17.1-14.7-23.1-23.28-35.36C4.88,343.09,0,329.38,0,329.38Z"/><path class="cls-6" d="M500,529.57c-21,0-33.42-20.63-33.42-33.42,0-17.1,14.7-23.1,23.28-35.37,5.26-7.51,10.14-21.22,10.14-21.22Z"/></g></svg>