<svg xmlns="http://www.w3.org/2000/svg" width="229.012" height="153.959" viewBox="0 0 229.012 153.959">
    <defs>
        <filter id="Path_91" width="229.012" height="146.034" x="0" y="7.925" filterUnits="userSpaceOnUse">
            <feOffset dx="2" dy="2"/>
            <feGaussianBlur result="blur" stdDeviation="6"/>
            <feFlood flood-opacity=".161"/>
            <feComposite in2="blur" operator="in"/>
            <feComposite in="SourceGraphic"/>
        </filter>
        <style>
            .cls-2{fill:#383a48}.cls-10,.cls-6,.cls-8{stroke:#383a48;stroke-miterlimit:10;fill:none}.cls-10,.cls-8{stroke-linecap:round}.cls-4{fill:#fff}.cls-6{stroke-width:3.07px}.cls-9{fill:#f6e049}.cls-8{stroke-width:2.5px}
        </style>
    </defs>
    <g id="Radio-01-01" transform="translate(-62.082 -230.5)">
        <g filter="url(#Path_91)" transform="translate(62.08 230.5)">
            <path id="Path_91-2" fill="#383a48" stroke="#383a48" stroke-miterlimit="10" stroke-width="5.04px" d="M87.379 270.407c17.592-7.032 100.2-27.5 170.53-2.411a16.13 16.13 0 0 1 10.572 16.832c-1.687 16.968-5.4 47.645-11.609 66.9a11.525 11.525 0 0 1-11.525 8.028c-23.155-1.111-109.939-3.721-137.631.922a9.849 9.849 0 0 1-10.98-6.938c-5.354-17.45-16.47-55.883-16.125-73.438a10.837 10.837 0 0 1 6.768-9.894z" transform="translate(-62.08 -229.37)"/>
        </g>
        <path id="Path_92" d="M8.269 0h1.583a8.269 8.269 0 0 1 8.269 8.269v2.3H0v-2.3A8.269 8.269 0 0 1 8.269 0z" class="cls-2" transform="rotate(-15.63 987.133 -311.127)"/>
        <path id="Line_7" fill="none" stroke="#383a48" stroke-linecap="round" stroke-miterlimit="10" stroke-width="2.98px" d="M0 22.89L77.683 0" transform="translate(132.106 232.35)"/>
        <circle id="Ellipse_60" cx="11.455" cy="11.455" r="11.455" class="cls-4" transform="translate(132.146 314.676)"/>
        <circle id="Ellipse_61" cx="11.455" cy="11.455" r="11.455" class="cls-4" transform="translate(217.984 314.676)"/>
        <path id="Path_93" fill="#e0719e" stroke="#383a48" stroke-miterlimit="10" stroke-width="5px" d="M107.379 270.156c17.591-6.907 79.237-27.019 149.569-2.379a15.847 15.847 0 0 1 10.571 16.523c-1.687 16.675-5.4 46.828-11.608 65.745a11.525 11.525 0 0 1-11.525 7.892c-23.154-1.048-88.981-3.668-116.672.9a9.869 9.869 0 0 1-10.99-6.812c-5.354-17.157-16.47-54.919-16.124-72.181a10.648 10.648 0 0 1 6.779-9.695z" transform="translate(.961 1.13)"/>
        <path id="Path_94" d="M117.114 302.38l133.157.294c-1.7 12.64-4.192 27.25-7.64 37.73a9.516 9.516 0 0 1-9.485 6.508c-19.127-.9-73.48-3.029-96.339.744a8.154 8.154 0 0 1-9.087-5.628c-2.631-8.447-6.959-22.953-9.967-36.305-.252-1.121-.493-2.222-.723-3.322z" class="cls-2" transform="translate(1.692 3.366)"/>
        <path id="Path_95" d="M117.12 304.212c-1.624-7.756-2.715-14.9-2.61-19.913a8.783 8.783 0 0 1 5.576-8.018c14.516-5.7 65.42-22.3 123.494-1.96a13.08 13.08 0 0 1 8.73 13.625c-.461 4.549-1.111 10.313-1.949 16.549-1.7 12.64-3.9 25.506-7.349 35.987a9.516 9.516 0 0 1-9.485 6.509c-19.127-.9-73.48-3.029-96.339.744a8.154 8.154 0 0 1-9.087-5.628c-2.631-8.447-7.251-21.209-10.259-34.562-.219-1.132-.46-2.232-.722-3.333z" class="cls-6" transform="translate(1.57 1.545)"/>
        <path id="Path_96" d="M117.11 302.38l133.157.294h.22" class="cls-6" transform="translate(1.695 3.366)"/>
        <path id="Path_97" fill="#f6e049" stroke="#f6e049" stroke-linecap="round" stroke-miterlimit="10" stroke-width="3px" d="M199.75 316.12a16.245 16.245 0 1 1-32.49 0" transform="translate(4.131 4.027)"/>
        <path id="Line_8" d="M0 0L0 32.805" class="cls-8" transform="translate(144.575 272.323)"/>
        <path id="Line_9" d="M0 0L0 34.733" class="cls-8" transform="translate(153.575 270.395)"/>
        <path id="Line_10" d="M0 0L0 37.301" class="cls-8" transform="translate(162.585 267.827)"/>
        <path id="Line_11" d="M0 0L0 37.301" class="cls-8" transform="translate(171.585 267.827)"/>
        <path id="Line_12" d="M0 0L0 37.301" class="cls-8" transform="translate(180.586 267.827)"/>
        <path id="Line_13" d="M0 0L0 37.301" class="cls-8" transform="translate(189.586 267.827)"/>
        <path id="Line_14" d="M0 0L0 37.301" class="cls-8" transform="translate(198.586 267.827)"/>
        <path id="Line_15" d="M0 0L0 37.301" class="cls-8" transform="translate(207.596 267.827)"/>
        <path id="Line_16" d="M0 0L0 34.733" class="cls-8" transform="translate(216.596 270.395)"/>
        <path id="Line_17" d="M0 0L0 32.805" class="cls-8" transform="translate(225.596 272.323)"/>
        <circle id="Ellipse_62" cx="13.09" cy="13.09" r="13.09" class="cls-9" transform="translate(125.577 292.698)"/>
        <path id="Path_98" d="M136.734 292.977a10.187 10.187 0 1 1-10.177 10.177 10.187 10.187 0 0 1 10.177-10.177m0-5.817a16 16 0 1 0 16 15.994 16 16 0 0 0-16-15.994z" class="cls-2" transform="translate(1.913 2.635)"/>
        <path id="Line_18" d="M0 0L6.037 9.894" class="cls-8" transform="translate(132.368 296.544)"/>
        <path id="Path_99" d="M226 317.081a13.1 13.1 0 1 1 10.638-5.46 13.091 13.091 0 0 1-10.638 5.46z" class="cls-9" transform="translate(6.301 2.815)"/>
        <path id="Path_100" d="M226.154 293.947a10.182 10.182 0 0 1-.021 20.364 10.041 10.041 0 0 1-5.922-1.918 10.177 10.177 0 0 1 5.943-18.446m0-5.817a15.994 15.994 0 1 0 9.317 3 15.994 15.994 0 0 0-9.317-3z" class="cls-2" transform="translate(6.168 2.681)"/>
        <path id="Line_19" d="M11.455 0L0 0.377" class="cls-8" transform="translate(232.049 307.077)"/>
        <rect id="Rectangle_71" width="63.282" height="11.917" class="cls-9" rx=".94" transform="translate(154.852 300.988)"/>
        <path id="Path_101" d="M213.812 298.87v9.946h-61.3v-9.946h61.3m0-1.97h-61.3a1.97 1.97 0 0 0-1.97 1.97v9.946a1.97 1.97 0 0 0 1.97 1.97h61.3a1.97 1.97 0 0 0 1.97-1.97v-9.946a1.97 1.97 0 0 0-1.97-1.97z" class="cls-2" transform="translate(3.326 3.103)"/>
        <path id="Line_20" d="M0 0L47.844 0" class="cls-10" transform="translate(162.566 306.952)"/>
        <path id="Line_21" d="M0 0L0 3.857" class="cls-10" transform="translate(162.575 305.023)"/>
        <path id="Line_22" d="M0 0L0 3.857" class="cls-10" transform="translate(168.557 305.023)"/>
        <path id="Line_23" d="M0 0L0 3.857" class="cls-10" transform="translate(174.53 305.023)"/>
        <path id="Line_24" d="M0 0L0 3.857" class="cls-10" transform="translate(180.512 305.023)"/>
        <path id="Line_25" d="M0 0L0 3.857" class="cls-10" transform="translate(186.495 305.023)"/>
        <path id="Line_26" d="M0 0L0 3.857" class="cls-10" transform="translate(192.467 305.023)"/>
        <path id="Line_27" d="M0 0L0 3.857" class="cls-10" transform="translate(198.449 305.023)"/>
        <path id="Line_28" d="M0 0L0 3.857" class="cls-10" transform="translate(204.422 305.023)"/>
        <path id="Line_29" d="M0 0L0 3.857" class="cls-10" transform="translate(210.404 305.023)"/>
        <path id="Line_50" fill="none" stroke="#f6e049" stroke-width="4px" d="M0 0L33 0" transform="translate(171.084 320.801)"/>
    </g>
</svg>
