<svg xmlns="http://www.w3.org/2000/svg" xmlns:xlink="http://www.w3.org/1999/xlink" viewBox="0 0 500 740"><defs><style>.cls-1{fill:url(#linear-gradient);}.cls-2{fill:#fff;}.cls-3{fill:url(#linear-gradient-2);}.cls-4{fill:url(#linear-gradient-3);}</style><linearGradient id="linear-gradient" x1="250" x2="250" y2="740" gradientUnits="userSpaceOnUse"><stop offset="0" stop-color="#a96dde"/><stop offset="0.26" stop-color="#9b59d6"/><stop offset="0.79" stop-color="#7827c1"/><stop offset="1" stop-color="#6911b8"/></linearGradient><linearGradient id="linear-gradient-2" x1="74.28" y1="530.54" x2="74.28" y2="800.28" xlink:href="#linear-gradient"/><linearGradient id="linear-gradient-3" x1="383.09" y1="712.37" x2="383.09" y2="549.68" xlink:href="#linear-gradient"/></defs><g id="Layer_3" data-name="Layer 3"><rect class="cls-1" width="500" height="740"/><path class="cls-2" d="M500,206V740H0V206.5c60.28-47.32,141.94-84.85,249.56-84.85C358.06,121.65,439.86,159,500,206Z"/><path class="cls-3" d="M0,504.27s25.41,58.63,76.44,62.58c0,0,7.29,1.52,25.52-5.77s37.45,3.19,44.05,18.45c7.26,16.78,1.22,50.25-47.09,59.06s-48.15-27.72-62-40.1C28.69,591.1,20,589.38,0,600Z"/><path class="cls-4" d="M500,619.86s-8,23.7-24.11,23.7-21.43-9.27-35.56-9.65-29.76,4.63-46.47,26.2-27.64,29.47-49.52,31.3-25.11-8.21-45.16-7.3S250,720.24,277.3,740H500Z"/></g></svg>