<svg xmlns="http://www.w3.org/2000/svg" width="25.724" height="27.805" viewBox="0 0 25.724 27.805">
  <path id="Icon_ionic-ios-thumbs-up" data-name="Icon ionic-ios-thumbs-up" d="M28.162,25.33a2.615,2.615,0,0,0,1.076-2.023,2.828,2.828,0,0,0-.7-1.875c-.039-.077-.071-.148-.1-.219l-.013-.071a.841.841,0,0,1,.129-.644,2.824,2.824,0,0,0,.374-1.656,1.957,1.957,0,0,0-.625-1.495,1.228,1.228,0,0,1-.264-1.179,2.484,2.484,0,0,0-.528-2.435c-.676-.76-1.308-.85-2.989-.754-1.16.071-3.575.444-5.166.7-.651.1-1.218.193-1.391.206-.818.084-.979,0-1.056-.316a2.089,2.089,0,0,1,.316-.837,13.815,13.815,0,0,0,.934-2.306,8.092,8.092,0,0,0-.174-5.811,2.105,2.105,0,0,0-1.694-1.23,2.563,2.563,0,0,0-1.8.509c-.219.258-.148.747-.4,1.726a18.783,18.783,0,0,1-.773,2.706c-.483,1.069-2.557,2.905-3.672,3.891-.264.232-.49.432-.651.586a13.278,13.278,0,0,0-1.643,2.106A11.213,11.213,0,0,1,6.466,16.1a2.327,2.327,0,0,1-1.437.7.517.517,0,0,0-.515.515V27.591a.533.533,0,0,0,.535.535,10.152,10.152,0,0,1,4.277.76,11.133,11.133,0,0,0,2.989.779,61.876,61.876,0,0,0,7.254.522,32.1,32.1,0,0,0,3.646-.251c2-.232,4.136-.7,4.844-2.383a1.819,1.819,0,0,0-.032-1.527.506.506,0,0,1-.052-.167A.546.546,0,0,1,28.162,25.33Z" transform="translate(-4.014 -2.882)" fill="none" stroke="#fff" stroke-width="1"/>
</svg>
