<svg width="49" height="49" viewBox="0 0 49 49" fill="none" xmlns="http://www.w3.org/2000/svg">
<g filter="url(#filter0_d_481_13220)">
<path d="M24.5505 45.4903C36.1755 45.4903 45.5994 36.14 45.5994 24.6058C45.5994 13.0716 36.1755 3.72125 24.5505 3.72125C12.9254 3.72125 3.50146 13.0716 3.50146 24.6058C3.50146 36.14 12.9254 45.4903 24.5505 45.4903Z" fill="white"/>
<mask id="mask0_481_13220" style="mask-type:alpha" maskUnits="userSpaceOnUse" x="3" y="2" width="44" height="44">
<path d="M45.4432 23.9647C45.4432 35.3134 36.1698 44.52 24.7221 44.52C13.2744 44.52 4.00098 35.3134 4.00098 23.9647C4.00098 12.616 13.2744 3.40936 24.7221 3.40936C36.1698 3.40936 45.4432 12.616 45.4432 23.9647Z" fill="white" stroke="black"/>
<path fill-rule="evenodd" clip-rule="evenodd" d="M24.7221 3.219C13.1743 3.219 3.81305 12.5072 3.81305 23.9647C3.81305 35.4222 13.1743 44.7104 24.7221 44.7104C36.2698 44.7104 45.6311 35.4222 45.6311 23.9647C45.6311 12.5072 36.2698 3.219 24.7221 3.219ZM3.50098 23.9647C3.50098 12.3362 13.002 2.90936 24.7221 2.90936C36.4422 2.90936 45.9432 12.3362 45.9432 23.9647C45.9432 35.5932 36.4422 45.02 24.7221 45.02C13.002 45.02 3.50098 35.5932 3.50098 23.9647Z" fill="#707070" stroke="black"/>
</mask>
<g mask="url(#mask0_481_13220)">
<path d="M33.7192 26.7629L33.5708 27.0064C33.4339 27.2309 33.2504 27.5317 33.0642 27.8366C32.8779 28.1416 32.689 28.4505 32.5411 28.6915C32.4672 28.8121 32.4037 28.9152 32.3561 28.9923L32.355 28.994C32.293 29.0132 32.2121 29.0369 32.1125 29.0652C31.8474 29.1403 31.4703 29.2412 31.0162 29.3596C30.109 29.5962 28.9063 29.8994 27.7047 30.1988C26.5035 30.4981 25.3049 30.7933 24.4065 31.0136C23.9574 31.1238 23.5833 31.2152 23.3215 31.2791L23.2142 31.3053L19.3578 26.6486L18.1572 13.9717L31.0567 13.27C31.0379 13.498 31.0156 13.7847 30.9932 14.1145C30.9349 14.9699 30.8751 16.1198 30.8694 17.2915C30.8638 18.458 30.9116 19.6686 31.0754 20.6363C31.157 21.1182 31.2716 21.5667 31.4375 21.9268C31.5973 22.2737 31.8475 22.6308 32.2527 22.7737C32.5165 22.8666 32.7646 23.1077 32.9856 23.5137C33.2039 23.9147 33.3634 24.4192 33.477 24.9327C33.5896 25.4421 33.652 25.9373 33.6861 26.3072C33.7031 26.4915 33.7129 26.6431 33.7185 26.7477C33.7187 26.7529 33.719 26.7579 33.7192 26.7629Z" fill="#FBE5C1" stroke="black"/>
<path d="M25.7466 21.8662C25.7466 22.0947 25.6756 22.2828 25.5842 22.403C25.493 22.5228 25.4034 22.5534 25.3438 22.5534C25.2841 22.5534 25.1945 22.5228 25.1033 22.403C25.0119 22.2828 24.9409 22.0947 24.9409 21.8662C24.9409 21.6378 25.0119 21.4496 25.1033 21.3295C25.1945 21.2096 25.2841 21.1791 25.3438 21.1791C25.4034 21.1791 25.493 21.2096 25.5842 21.3295C25.6756 21.4496 25.7466 21.6378 25.7466 21.8662Z" fill="#623334" stroke="black"/>
<path d="M31.1021 21.0818C31.1021 21.3103 31.031 21.4984 30.9396 21.6186C30.8485 21.7384 30.7589 21.769 30.6992 21.769C30.6396 21.769 30.5499 21.7384 30.4588 21.6186C30.3674 21.4984 30.2964 21.3103 30.2964 21.0818C30.2964 20.8534 30.3674 20.6653 30.4588 20.5451C30.5499 20.4252 30.6396 20.3947 30.6992 20.3947C30.7589 20.3947 30.8485 20.4252 30.9396 20.5451C31.031 20.6653 31.1021 20.8534 31.1021 21.0818Z" fill="#623334" stroke="black"/>
<mask id="path-7-inside-1_481_13220" fill="white">
<path d="M31.666 18.0042C31.4459 17.8711 31.2099 17.7659 30.9635 17.691C30.7003 17.5982 30.4303 17.5257 30.1559 17.4742C29.6902 17.3408 29.1967 17.3358 28.7284 17.4596L28.6815 17.4781C28.5863 17.517 28.48 17.5196 28.3831 17.485C28.2862 17.4505 28.2056 17.3811 28.1573 17.2909C28.1089 17.2007 28.0963 17.096 28.1216 16.997C28.1469 16.898 28.2083 16.8119 28.2941 16.7554C28.6223 16.5473 29.0099 16.4508 29.3983 16.4802C29.735 16.502 30.0673 16.5687 30.386 16.6789C30.6924 16.7896 30.9854 16.9335 31.2597 17.1083C31.5692 17.2846 31.8198 17.547 31.9808 17.863C31.9956 17.8952 31.9993 17.9314 31.9912 17.9658C31.983 18.0003 31.9634 18.0309 31.9357 18.0532C31.908 18.0755 31.8735 18.0881 31.8379 18.0889C31.8022 18.0897 31.7675 18.0788 31.7388 18.0577L31.666 18.0042Z"/>
</mask>
<path d="M31.666 18.0042C31.4459 17.8711 31.2099 17.7659 30.9635 17.691C30.7003 17.5982 30.4303 17.5257 30.1559 17.4742C29.6902 17.3408 29.1967 17.3358 28.7284 17.4596L28.6815 17.4781C28.5863 17.517 28.48 17.5196 28.3831 17.485C28.2862 17.4505 28.2056 17.3811 28.1573 17.2909C28.1089 17.2007 28.0963 17.096 28.1216 16.997C28.1469 16.898 28.2083 16.8119 28.2941 16.7554C28.6223 16.5473 29.0099 16.4508 29.3983 16.4802C29.735 16.502 30.0673 16.5687 30.386 16.6789C30.6924 16.7896 30.9854 16.9335 31.2597 17.1083C31.5692 17.2846 31.8198 17.547 31.9808 17.863C31.9956 17.8952 31.9993 17.9314 31.9912 17.9658C31.983 18.0003 31.9634 18.0309 31.9357 18.0532C31.908 18.0755 31.8735 18.0881 31.8379 18.0889C31.8022 18.0897 31.7675 18.0788 31.7388 18.0577L31.666 18.0042Z" fill="#626262"/>
<path d="M31.666 18.0042L32.2581 17.1984L32.222 17.1719L32.1837 17.1487L31.666 18.0042ZM30.9635 17.691L30.6312 18.6341L30.6518 18.6414L30.6726 18.6477L30.9635 17.691ZM30.1559 17.4742L29.8806 18.4355L29.9254 18.4484L29.9713 18.457L30.1559 17.4742ZM28.7284 17.4596L28.4728 16.4929L28.4167 16.5077L28.3626 16.5289L28.7284 17.4596ZM28.6815 17.4781L28.3156 16.5473L28.3026 16.5526L28.6815 17.4781ZM28.2941 16.7554L27.7586 15.9109L27.7513 15.9155L27.744 15.9203L28.2941 16.7554ZM29.3983 16.4802L29.3226 17.4774L29.3338 17.4782L29.3983 16.4802ZM30.386 16.6789L30.7258 15.7383L30.7127 15.7338L30.386 16.6789ZM31.2597 17.1083L30.7226 17.9517L30.7434 17.965L30.7648 17.9772L31.2597 17.1083ZM31.9808 17.863L32.8897 17.446L32.8811 17.4273L32.8718 17.409L31.9808 17.863ZM31.7388 18.0577L31.1467 18.8636L31.1481 18.8646L31.7388 18.0577ZM32.1837 17.1487C31.8923 16.9723 31.58 16.8332 31.2544 16.7342L30.6726 18.6477C30.8398 18.6986 30.9996 18.7698 31.1483 18.8598L32.1837 17.1487ZM31.2958 16.7478C30.9846 16.6381 30.6652 16.5523 30.3405 16.4913L29.9713 18.457C30.1954 18.4991 30.416 18.5583 30.6312 18.6341L31.2958 16.7478ZM30.4312 16.5128C29.7922 16.3298 29.1153 16.323 28.4728 16.4929L28.984 18.4264C29.2782 18.3486 29.5883 18.3518 29.8806 18.4355L30.4312 16.5128ZM28.3626 16.5289L28.3157 16.5474L29.0472 18.4088L29.0942 18.3903L28.3626 16.5289ZM28.3026 16.5526C28.4347 16.4986 28.583 16.4946 28.7193 16.5433L28.0469 18.4268C28.3769 18.5447 28.7379 18.5355 29.0603 18.4035L28.3026 16.5526ZM28.7193 16.5433C28.8551 16.5918 28.9693 16.6891 29.0387 16.8186L27.2759 17.7633C27.4419 18.0731 27.7173 18.3092 28.0469 18.4268L28.7193 16.5433ZM29.0387 16.8186C29.1089 16.9496 29.1269 17.1017 29.0906 17.2443L27.1527 16.7497C27.0657 17.0903 27.109 17.4519 27.2759 17.7633L29.0387 16.8186ZM29.0906 17.2443C29.0539 17.3878 28.9653 17.5108 28.8442 17.5905L27.744 15.9203C27.4514 16.113 27.2398 16.4082 27.1527 16.7497L29.0906 17.2443ZM28.8296 17.5999C28.9753 17.5076 29.1484 17.4641 29.3226 17.4774L29.4739 15.4831C28.8714 15.4374 28.2694 15.587 27.7586 15.9109L28.8296 17.5999ZM29.3338 17.4782C29.5815 17.4941 29.8255 17.5432 30.0593 17.624L30.7127 15.7338C30.309 15.5942 29.8886 15.5098 29.4627 15.4823L29.3338 17.4782ZM30.0462 17.6194C30.2836 17.7052 30.5104 17.8166 30.7226 17.9517L31.7969 16.2648C31.4603 16.0504 31.1011 15.874 30.7258 15.7384L30.0462 17.6194ZM30.7648 17.9772C30.905 18.0571 31.0177 18.1755 31.0898 18.3171L32.8718 17.409C32.6219 16.9186 32.2335 16.5121 31.7547 16.2394L30.7648 17.9772ZM31.0719 18.2801C30.9952 18.1129 30.974 17.9212 31.0182 17.735L32.9642 18.1967C33.0247 17.9416 32.996 17.6776 32.8897 17.446L31.0719 18.2801ZM31.0182 17.735C31.0623 17.549 31.167 17.3882 31.309 17.274L32.5624 18.8325C32.7598 18.6737 32.9037 18.4516 32.9642 18.1967L31.0182 17.735ZM31.309 17.274C31.4529 17.1582 31.6309 17.0933 31.8153 17.0891L31.8604 19.0886C32.1162 19.0829 32.363 18.9928 32.5624 18.8325L31.309 17.274ZM31.8153 17.0891C31.9999 17.085 32.1808 17.142 32.3296 17.2509L31.1481 18.8646C31.3543 19.0156 31.6045 19.0944 31.8604 19.0886L31.8153 17.0891ZM32.331 17.2519L32.2581 17.1984L31.0739 18.8101L31.1467 18.8636L32.331 17.2519Z" fill="black" mask="url(#path-7-inside-1_481_13220)"/>
<path d="M20.8152 20.1575L20.7547 20.0126L20.8152 20.1575Z" fill="#626262" stroke="black"/>
<path d="M27.8236 23.107C27.7787 23.0149 27.7149 22.7984 27.6559 22.4732C27.5996 22.1625 27.5548 21.7938 27.5314 21.4264C27.5273 21.3618 27.5239 21.2976 27.5212 21.2342C27.5233 21.2419 27.5253 21.2497 27.5274 21.2574C27.6969 21.8847 27.9076 22.2801 28.254 22.6155C28.4151 22.7714 28.5953 22.9045 28.7821 23.0355C28.8455 23.0799 28.9091 23.1238 28.9747 23.169C29.111 23.2631 29.2556 23.3628 29.4228 23.4847C29.4743 23.5223 29.5128 23.5544 29.5414 23.5807C29.4776 23.612 29.3894 23.6453 29.2768 23.6748C29.1079 23.7191 28.9188 23.7459 28.7468 23.7529C28.4055 23.7668 28.2633 23.7031 28.1799 23.64C28.0758 23.5611 27.9757 23.4192 27.8236 23.107Z" fill="#DC736A" stroke="black"/>
<path d="M17.4143 21.3766C17.4406 21.387 17.4646 21.3973 17.4864 21.4072C17.4914 21.5023 17.4973 21.6198 17.5038 21.7542C17.5215 22.1227 17.5428 22.6163 17.5569 23.1183C17.5711 23.6221 17.578 24.1273 17.5677 24.5218C17.5625 24.7202 17.5532 24.8805 17.5401 24.9945C17.5361 25.0297 17.5321 25.0565 17.5287 25.0761C17.4256 25.2166 17.4193 25.2437 17.4022 25.258C17.3956 25.2634 17.3875 25.267 17.3717 25.2744C17.2996 25.308 17.0654 25.3669 16.367 25.2752C16.2152 25.2553 16.1178 25.229 16.0568 25.2047C16.0274 25.193 16.0093 25.1828 15.999 25.176C15.9902 25.1702 15.9866 25.1666 15.9859 25.1659C15.9859 25.1658 15.9858 25.1657 15.9857 25.1656C15.9851 25.1643 15.9824 25.1587 15.9791 25.146C15.9718 25.1174 15.9652 25.0668 15.9665 24.9777C15.9677 24.8885 15.9762 24.7843 15.9885 24.649C15.9899 24.6332 15.9914 24.6171 15.9929 24.6006C16.0039 24.4812 16.0165 24.3439 16.025 24.1973C16.0447 23.8588 16.0438 23.456 15.9582 22.9963C15.8837 22.5967 15.8365 22.2693 15.8213 22.0023C15.8058 21.7311 15.8256 21.5559 15.861 21.4453C15.8914 21.3504 15.9286 21.314 15.9706 21.2892C16.0278 21.2555 16.1462 21.215 16.3814 21.2134C16.8834 21.2098 17.218 21.299 17.4143 21.3766ZM17.5196 25.1162C17.5196 25.116 17.5203 25.113 17.5221 25.1079C17.5206 25.1138 17.5197 25.1164 17.5196 25.1162Z" fill="#FBE5C1" stroke="black"/>
<path d="M25.1466 34.9757V35.0885L25.195 35.1904L26.7738 38.5105L18.4652 38.2913L20.3062 31.7241H25.1466V34.9757Z" fill="#FBE5C1" stroke="black"/>
<path d="M31.9688 13.4667L31.9333 12.946L31.4146 13.0038C31.2272 13.0247 28.6637 13.1916 26.1165 13.3548C24.8496 13.436 23.5954 13.5158 22.6579 13.5753L21.5273 13.6469L21.2113 13.6669L21.1282 13.6721L21.1069 13.6735L21.1015 13.6738L21.1002 13.6739L21.0998 13.6739C21.0998 13.6739 21.0997 13.6739 21.1312 14.1729L21.0997 13.6739L20.4625 13.7141L20.6541 14.3225L20.6542 14.3226L20.6542 14.3227L20.6543 14.3229L20.6543 14.3232L20.6549 14.3251L20.659 14.3388C20.6629 14.3518 20.6688 14.3723 20.6762 14.3996C20.6911 14.4541 20.712 14.5356 20.7348 14.6382C20.7806 14.8442 20.8327 15.1315 20.8586 15.4558C20.9121 16.1243 20.8469 16.8577 20.4906 17.3881L20.4852 17.3962L20.4802 17.4044C20.0817 18.0504 19.5831 18.63 19.0025 19.1222L18.7925 19.3002L18.8306 19.5728L19.3258 19.5036C18.8306 19.5728 18.8307 19.5729 18.8307 19.573L18.8307 19.5733L18.8309 19.5746L18.8315 19.5791L18.834 19.5964L18.8435 19.6628C18.8519 19.7208 18.8644 19.8058 18.8808 19.9142C18.9136 20.1312 18.9619 20.4423 19.0244 20.8204C19.1494 21.576 19.3313 22.6013 19.559 23.6774C19.7863 24.7516 20.0613 25.8859 20.3734 26.8561C20.5295 27.3412 20.6974 27.7932 20.8767 28.18C21.0532 28.5606 21.2539 28.9072 21.4857 29.1589C21.92 29.6306 22.4089 29.8616 22.9268 29.8251C23.4167 29.7906 23.8248 29.5223 24.1331 29.2389C24.6256 28.7861 25.0305 28.1228 25.2348 27.7882C25.2793 27.7152 25.3143 27.6579 25.3386 27.6218C25.6717 27.1264 27.2964 25.0721 30.1009 25.1547C31.592 25.1986 32.4305 25.47 32.9221 25.8027C33.3931 26.1214 33.6029 26.5351 33.7429 27.0302C33.7628 27.1003 33.7884 27.2953 33.7875 27.617C33.7866 27.9246 33.7618 28.3129 33.7015 28.7488C33.5805 29.6233 33.3203 30.6621 32.8459 31.6086C32.3719 32.5543 31.697 33.3833 30.7565 33.8863C29.8238 34.3851 28.5744 34.5933 26.8879 34.2015C23.3614 33.3821 21.2858 32.3226 19.9648 30.4628C18.623 28.5739 17.9952 25.7762 17.6117 21.2979L17.5726 20.8405H17.1136H15.822C15.7671 20.6977 15.6983 20.5053 15.626 20.2712C15.455 19.7175 15.2665 18.9358 15.1966 18.0265C15.057 16.2111 15.3891 13.9097 17.2562 11.8672C19.1858 9.75622 21.6895 8.18729 23.729 7.14252C24.7457 6.6217 25.6401 6.23467 26.2791 5.97826C26.2928 5.97276 26.3064 5.96732 26.3199 5.96194L25.9407 7.0678L25.6499 7.91593L26.5242 7.7176L31.2916 6.63626L30.3345 8.81963L29.9623 9.66879L30.8763 9.51329L33.2657 9.10681L31.9921 13.8083L31.9688 13.4667Z" fill="#0D0D0D" stroke="black"/>
<path d="M33.5899 63.6577L33.3196 63.2371L33.0899 63.3848L33.0899 63.6578L33.5899 63.6577ZM33.5899 63.6577L33.3196 63.2371L33.3198 63.237L33.3205 63.2365L33.3236 63.2346L33.3358 63.2267L33.3839 63.1957L33.5687 63.0762C33.7289 62.9724 33.96 62.8222 34.243 62.637C34.8091 62.2665 35.5825 61.7563 36.412 61.1968C38.0823 60.0702 39.9444 58.7678 40.8211 58.0002C41.6383 57.2846 42.1602 56.2879 42.4788 55.4404C42.6365 55.0208 42.7406 54.6481 42.8051 54.3813C42.829 54.2823 42.8473 54.1983 42.8609 54.1323L38.6539 46.7006L34.8423 44.5673L33.0954 45.3475L32.0545 47.2408L38.2478 55.4336L38.5286 55.805L38.1781 56.1115L33.7063 60.021L33.6847 60.0399L33.6611 60.0562L31.5212 61.5317L33.509 67.4465C33.7257 66.9451 33.8545 66.3315 33.6487 65.7193C33.3796 64.9186 33.2416 64.4279 33.1703 64.1312C33.1347 63.9826 33.1149 63.8792 33.104 63.8076C33.0985 63.7715 33.095 63.7424 33.0929 63.7185C33.0919 63.7065 33.0911 63.6956 33.0906 63.6857L33.0901 63.6712L33.09 63.6644L33.09 63.6611L33.0899 63.6594L33.0899 63.6586C33.0899 63.6582 33.0899 63.6578 33.5899 63.6577Z" fill="#E3B0A1" stroke="black"/>
<path d="M16.7108 66.4815C16.7204 66.2739 16.7305 66.0111 16.7381 65.702C16.7583 64.8873 16.7616 63.749 16.6942 62.4532C16.5601 59.8754 16.1439 56.6183 14.9868 54.0484C13.8579 51.5409 12.9581 50.1512 12.3214 49.3792C12.0022 48.9922 11.7451 48.7555 11.5536 48.6106C11.4577 48.538 11.3777 48.488 11.3141 48.4537C11.2824 48.4366 11.2547 48.4233 11.2313 48.4132C11.2196 48.4081 11.2089 48.4038 11.1993 48.4001L11.1858 48.3951L11.1796 48.393L11.1767 48.392L11.1753 48.3915C11.1746 48.3913 11.1739 48.391 11.0173 48.8659L11.1739 48.391L10.7894 48.2643L10.5854 48.614L9.65362 50.2116C8.39459 49.5966 7.02908 49.2212 5.62777 49.1069L5.61923 49.1062L5.61068 49.1058L4.14864 49.0368L7.98608 41.5169L15.0004 37.6275L17.8005 37.3754C17.825 37.4663 17.8632 37.5601 17.9185 37.655C18.0813 37.9349 18.3702 38.1885 18.7999 38.4211C19.2327 38.6552 19.8408 38.8856 20.6892 39.1029C22.4024 39.5416 23.8665 39.5489 24.9796 39.305C25.987 39.0843 26.8087 38.6304 27.1652 38.0034C27.1754 38.0032 27.1867 38.0031 27.1995 38.0034C27.3631 38.0065 27.6161 38.0513 27.9534 38.1445C28.6185 38.3283 29.485 38.664 30.3585 39.0383C31.2275 39.4106 32.0852 39.8131 32.7269 40.1233C33.0474 40.2782 33.3132 40.4097 33.4988 40.5024C33.5808 40.5433 33.647 40.5767 33.6954 40.6011L37.471 45.2242C36.9412 45.0926 36.3982 45.0125 35.8498 44.9859L35.8376 44.9853H35.8255C34.8475 44.9853 33.9592 45.5268 33.33 46.1086C33.009 46.4055 32.7363 46.7299 32.5335 47.0373C32.3393 47.3318 32.179 47.6561 32.1367 47.9492C32.1367 47.9493 32.1367 47.9494 32.1367 47.9495L32.1152 48.0981L31.7239 47.9685L31.2331 47.806L31.0871 48.302L31.5668 48.4432C31.0871 48.302 31.087 48.3022 31.087 48.3024L31.0868 48.3031L31.0862 48.305L31.0843 48.3115L31.0777 48.3346C31.0721 48.3545 31.0641 48.3834 31.054 48.4208C31.0338 48.4958 31.0052 48.6053 30.9707 48.747C30.9018 49.0304 30.8091 49.4428 30.7125 49.9653C30.5193 51.01 30.3098 52.4971 30.2422 54.2752C30.1142 57.6462 30.4958 62.0828 32.4848 66.535L16.7108 66.4815Z" fill="#1E4633" stroke="black"/>
<mask id="path-16-inside-2_481_13220" fill="white">
<path d="M29.5849 29.0466C29.0564 29.0389 28.5445 28.8624 28.1251 28.5431C28.0809 28.5112 28.0433 28.4711 28.0148 28.4249C27.9863 28.3786 27.9673 28.3272 27.9587 28.2737C27.9502 28.2201 27.9524 28.1655 27.9651 28.1128C27.9779 28.0601 28.001 28.0103 28.0331 27.9665C28.0652 27.9226 28.1057 27.8853 28.1522 27.857C28.1988 27.8287 28.2507 27.8098 28.3046 27.8014C28.3586 27.7929 28.4136 27.7951 28.4668 27.8077C28.5199 27.8204 28.5698 27.8433 28.614 27.8751C30.0183 28.8858 31.2297 27.3403 31.2425 27.3251C31.3084 27.2396 31.4048 27.1826 31.5119 27.1658C31.6191 27.1489 31.7287 27.1735 31.8179 27.2347C31.9061 27.2955 31.9667 27.3883 31.9871 27.4929C32.0074 27.5976 31.9857 27.706 31.9267 27.795C31.4436 28.4049 30.7652 28.833 30.0037 29.0088C29.8655 29.0335 29.7254 29.0462 29.5849 29.0466Z"/>
</mask>
<path d="M29.5849 29.0466C29.0564 29.0389 28.5445 28.8624 28.1251 28.5431C28.0809 28.5112 28.0433 28.4711 28.0148 28.4249C27.9863 28.3786 27.9673 28.3272 27.9587 28.2737C27.9502 28.2201 27.9524 28.1655 27.9651 28.1128C27.9779 28.0601 28.001 28.0103 28.0331 27.9665C28.0652 27.9226 28.1057 27.8853 28.1522 27.857C28.1988 27.8287 28.2507 27.8098 28.3046 27.8014C28.3586 27.7929 28.4136 27.7951 28.4668 27.8077C28.5199 27.8204 28.5698 27.8433 28.614 27.8751C30.0183 28.8858 31.2297 27.3403 31.2425 27.3251C31.3084 27.2396 31.4048 27.1826 31.5119 27.1658C31.6191 27.1489 31.7287 27.1735 31.8179 27.2347C31.9061 27.2955 31.9667 27.3883 31.9871 27.4929C32.0074 27.5976 31.9857 27.706 31.9267 27.795C31.4436 28.4049 30.7652 28.833 30.0037 29.0088C29.8655 29.0335 29.7254 29.0462 29.5849 29.0466Z" fill="#DC736A"/>
<path d="M28.1251 28.5431L28.7309 27.7474L28.7205 27.7395L28.7099 27.7319L28.1251 28.5431ZM28.614 27.8751L28.0292 28.6864L28.0298 28.6868L28.614 27.8751ZM31.2425 27.3251L32.007 27.9698L32.0213 27.9528L32.0349 27.9352L31.2425 27.3251ZM31.8179 27.2347L32.386 26.4117L32.3831 26.4098L31.8179 27.2347ZM31.9267 27.795L32.7106 28.416L32.7368 28.3828L32.7602 28.3476L31.9267 27.795ZM30.0037 29.0088L30.1802 29.9931L30.2045 29.9887L30.2285 29.9832L30.0037 29.0088ZM29.5994 28.0467C29.2841 28.0421 28.9795 27.9368 28.7309 27.7474L27.5194 29.3388C28.1095 29.788 28.8287 30.0357 29.5705 30.0465L29.5994 28.0467ZM28.7099 27.7319C28.7707 27.7757 28.8241 27.8322 28.8656 27.8993L27.164 28.9504C27.2626 29.11 27.3911 29.2467 27.5404 29.3543L28.7099 27.7319ZM28.8656 27.8993C28.9072 27.9668 28.9342 28.0406 28.9462 28.116L26.9712 28.4314C27.0004 28.6139 27.0653 28.7905 27.164 28.9504L28.8656 27.8993ZM28.9462 28.116C28.9586 28.1936 28.9553 28.2725 28.9371 28.3479L26.9932 27.8777C26.9494 28.0585 26.9417 28.2466 26.9712 28.4314L28.9462 28.116ZM28.9371 28.3479C28.9188 28.4235 28.8858 28.4946 28.8399 28.5572L27.2262 27.3757C27.1161 27.5261 27.0369 27.6967 26.9932 27.8777L28.9371 28.3479ZM28.8399 28.5572C28.7951 28.6184 28.7383 28.671 28.6718 28.7114L27.6327 27.0026C27.4731 27.0996 27.3352 27.2268 27.2262 27.3757L28.8399 28.5572ZM28.6718 28.7114C28.6051 28.752 28.533 28.7777 28.4599 28.7892L28.1493 26.8135C27.9684 26.8419 27.7925 26.9054 27.6327 27.0026L28.6718 28.7114ZM28.4599 28.7892C28.3847 28.801 28.3083 28.7979 28.2351 28.7805L28.6984 26.8349C28.519 26.7922 28.3325 26.7847 28.1493 26.8135L28.4599 28.7892ZM28.2351 28.7805C28.1602 28.7627 28.0903 28.7304 28.0292 28.6864L29.1987 27.0639C29.0493 26.9562 28.8796 26.8781 28.6984 26.8349L28.2351 28.7805ZM28.0298 28.6868C28.5456 29.058 29.091 29.2228 29.625 29.2177C30.1437 29.2126 30.5886 29.0484 30.9291 28.8626C31.2691 28.6771 31.536 28.4534 31.7148 28.2825C31.8979 28.1075 32.0108 27.9653 32.007 27.9698L30.4781 26.6804C30.4694 26.6908 30.2689 26.9445 29.971 27.107C29.8315 27.1832 29.7095 27.2167 29.6057 27.2177C29.5171 27.2186 29.3845 27.1976 29.1981 27.0635L28.0298 28.6868ZM32.0349 27.9352C31.9435 28.0538 31.8112 28.131 31.6671 28.1536L31.3567 26.1779C30.9983 26.2342 30.6732 26.4253 30.4502 26.7151L32.0349 27.9352ZM31.6671 28.1536C31.5235 28.1762 31.3751 28.1435 31.2527 28.0596L32.3831 26.4098C32.0822 26.2035 31.7146 26.1216 31.3567 26.1779L31.6671 28.1536ZM31.2499 28.0577C31.1232 27.9702 31.0351 27.8363 31.0054 27.6838L32.9687 27.3021C32.8983 26.9403 32.689 26.6208 32.386 26.4117L31.2499 28.0577ZM31.0054 27.6838C30.9756 27.5301 31.0076 27.3716 31.0932 27.2424L32.7602 28.3476C32.9639 28.0404 33.0393 27.665 32.9687 27.3021L31.0054 27.6838ZM31.1429 27.174C30.8013 27.6052 30.3204 27.9094 29.7788 28.0344L30.2285 29.9832C31.21 29.7567 32.0859 29.2045 32.7106 28.416L31.1429 27.174ZM29.8272 28.0245C29.7463 28.039 29.6644 28.0464 29.5824 28.0466L29.5874 30.0466C29.7863 30.0461 29.9846 30.0281 30.1802 29.9931L29.8272 28.0245Z" fill="black" mask="url(#path-16-inside-2_481_13220)"/>
</g>
</g>
<defs>
<filter id="filter0_d_481_13220" x="0.000976562" y="0.721252" width="48.5986" height="47.7988" filterUnits="userSpaceOnUse" color-interpolation-filters="sRGB">
<feFlood flood-opacity="0" result="BackgroundImageFix"/>
<feColorMatrix in="SourceAlpha" type="matrix" values="0 0 0 0 0 0 0 0 0 0 0 0 0 0 0 0 0 0 127 0" result="hardAlpha"/>
<feOffset/>
<feGaussianBlur stdDeviation="1.5"/>
<feComposite in2="hardAlpha" operator="out"/>
<feColorMatrix type="matrix" values="0 0 0 0 0 0 0 0 0 0 0 0 0 0 0 0 0 0 0.25 0"/>
<feBlend mode="normal" in2="BackgroundImageFix" result="effect1_dropShadow_481_13220"/>
<feBlend mode="normal" in="SourceGraphic" in2="effect1_dropShadow_481_13220" result="shape"/>
</filter>
</defs>
</svg>
