<svg width="89" height="40" viewBox="0 0 89 40" fill="none" xmlns="http://www.w3.org/2000/svg">
<g filter="url(#filter0_d_481_13207)">
<path d="M43.6084 0.522554C26.5808 1.00112 6.99553 0.77691 4.37982 4.03055C0.715415 8.58899 1.60263 16.0235 0.545298 23.5799C0.211996 27.3961 -0.303694 35.4474 9.33677 35.613C9.33677 35.613 17.677 35.9954 30.6481 35.8462L47.3306 35.6445C62.0833 35.5867 76.9786 35.125 79.219 32.1413C79.219 32.1413 83.6698 21.801 85.6838 11.9196C86.3243 8.78373 88.5738 0.738613 77.5243 0.502004C77.5243 0.502004 59.7478 0.00512569 43.6099 0.524122" fill="url(#paint0_linear_481_13207)"/>
</g>
<defs>
<filter id="filter0_d_481_13207" x="0.40625" y="0.287567" width="87.9028" height="39.5932" filterUnits="userSpaceOnUse" color-interpolation-filters="sRGB">
<feFlood flood-opacity="0" result="BackgroundImageFix"/>
<feColorMatrix in="SourceAlpha" type="matrix" values="0 0 0 0 0 0 0 0 0 0 0 0 0 0 0 0 0 0 127 0" result="hardAlpha"/>
<feOffset dx="2" dy="4"/>
<feComposite in2="hardAlpha" operator="out"/>
<feColorMatrix type="matrix" values="0 0 0 0 0.839216 0 0 0 0 0.411765 0 0 0 0 0.00784314 0 0 0 1 0"/>
<feBlend mode="normal" in2="BackgroundImageFix" result="effect1_dropShadow_481_13207"/>
<feBlend mode="normal" in="SourceGraphic" in2="effect1_dropShadow_481_13207" result="shape"/>
</filter>
<linearGradient id="paint0_linear_481_13207" x1="-2.39073" y1="-33.5368" x2="167.93" y2="101.755" gradientUnits="userSpaceOnUse">
<stop stop-color="#FF8300"/>
<stop offset="0.520833" stop-color="#FABD4C"/>
</linearGradient>
</defs>
</svg>
