<svg width="93" height="42" viewBox="0 0 93 42" fill="none" xmlns="http://www.w3.org/2000/svg">
<g filter="url(#filter0_d_1615_798)">
<path d="M45.7868 0.780875C28.1222 1.27734 7.80433 1.04475 5.09078 4.4201C1.2893 9.14906 2.2097 16.8616 1.11282 24.7008C0.767045 28.6597 0.232065 37.0122 10.2332 37.184C10.2332 37.184 18.8853 37.5807 32.3416 37.4259L49.6483 37.2166C64.9528 37.1567 80.4053 36.6778 82.7295 33.5824C82.7295 33.5824 87.3467 22.8553 89.4361 12.6043C90.1005 9.35108 92.4342 1.00502 80.9714 0.759557C80.9714 0.759557 62.5299 0.244091 45.7884 0.782502" fill="url(#paint0_linear_1615_798)"/>
</g>
<defs>
<filter id="filter0_d_1615_798" x="0.968506" y="0.537109" width="91.1165" height="40.9247" filterUnits="userSpaceOnUse" color-interpolation-filters="sRGB">
<feFlood flood-opacity="0" result="BackgroundImageFix"/>
<feColorMatrix in="SourceAlpha" type="matrix" values="0 0 0 0 0 0 0 0 0 0 0 0 0 0 0 0 0 0 127 0" result="hardAlpha"/>
<feOffset dx="2" dy="4"/>
<feComposite in2="hardAlpha" operator="out"/>
<feColorMatrix type="matrix" values="0 0 0 0 0.843137 0 0 0 0 0.564706 0 0 0 0 0.211765 0 0 0 1 0"/>
<feBlend mode="normal" in2="BackgroundImageFix" result="effect1_dropShadow_1615_798"/>
<feBlend mode="normal" in="SourceGraphic" in2="effect1_dropShadow_1615_798" result="shape"/>
</filter>
<linearGradient id="paint0_linear_1615_798" x1="-1.93304" y1="-34.5526" x2="174.759" y2="105.801" gradientUnits="userSpaceOnUse">
<stop stop-color="#FF8300"/>
<stop offset="0.520833" stop-color="#FABD4C"/>
</linearGradient>
</defs>
</svg>
