<svg width="41" height="48" viewBox="0 0 41 48" fill="none" xmlns="http://www.w3.org/2000/svg">
<g filter="url(#filter0_d_545_155)">
<path d="M36.5884 20.6083C36.5884 33.0527 20.5884 43.7194 20.5884 43.7194C20.5884 43.7194 4.58838 33.0527 4.58838 20.6083C4.58838 16.3648 6.27409 12.2951 9.27467 9.29456C12.2753 6.29397 16.3449 4.60826 20.5884 4.60826C24.8318 4.60826 28.9015 6.29397 31.9021 9.29456C34.9027 12.2951 36.5884 16.3648 36.5884 20.6083Z" fill="white"/>
</g>
<g filter="url(#filter1_d_545_155)">
<path d="M34.032 20.3836C34.032 30.8398 20.5883 39.8023 20.5883 39.8023C20.5883 39.8023 7.14453 30.8398 7.14453 20.3836C7.14453 16.8181 8.56092 13.3986 11.0821 10.8774C13.6033 8.3562 17.0228 6.93981 20.5883 6.93981C24.1538 6.93981 27.5733 8.3562 30.0945 10.8774C32.6157 13.3986 34.032 16.8181 34.032 20.3836Z" fill="#BB373C"/>
</g>
<g filter="url(#filter2_d_545_155)">
<path d="M20.5887 24.1639C23.5342 24.1639 25.922 21.776 25.922 18.8305C25.922 15.885 23.5342 13.4972 20.5887 13.4972C17.6432 13.4972 15.2554 15.885 15.2554 18.8305C15.2554 21.776 17.6432 24.1639 20.5887 24.1639Z" fill="white"/>
</g>
<defs>
<filter id="filter0_d_545_155" x="0.588379" y="0.608265" width="40" height="47.1111" filterUnits="userSpaceOnUse" color-interpolation-filters="sRGB">
<feFlood flood-opacity="0" result="BackgroundImageFix"/>
<feColorMatrix in="SourceAlpha" type="matrix" values="0 0 0 0 0 0 0 0 0 0 0 0 0 0 0 0 0 0 127 0" result="hardAlpha"/>
<feOffset/>
<feGaussianBlur stdDeviation="2"/>
<feComposite in2="hardAlpha" operator="out"/>
<feColorMatrix type="matrix" values="0 0 0 0 0 0 0 0 0 0 0 0 0 0 0 0 0 0 0.25 0"/>
<feBlend mode="normal" in2="BackgroundImageFix" result="effect1_dropShadow_545_155"/>
<feBlend mode="normal" in="SourceGraphic" in2="effect1_dropShadow_545_155" result="shape"/>
</filter>
<filter id="filter1_d_545_155" x="7.14453" y="6.93981" width="26.8877" height="33.8625" filterUnits="userSpaceOnUse" color-interpolation-filters="sRGB">
<feFlood flood-opacity="0" result="BackgroundImageFix"/>
<feColorMatrix in="SourceAlpha" type="matrix" values="0 0 0 0 0 0 0 0 0 0 0 0 0 0 0 0 0 0 127 0" result="hardAlpha"/>
<feOffset dy="1"/>
<feComposite in2="hardAlpha" operator="out"/>
<feColorMatrix type="matrix" values="0 0 0 0 0.583333 0 0 0 0 0.157389 0 0 0 0 0.128819 0 0 0 1 0"/>
<feBlend mode="normal" in2="BackgroundImageFix" result="effect1_dropShadow_545_155"/>
<feBlend mode="normal" in="SourceGraphic" in2="effect1_dropShadow_545_155" result="shape"/>
</filter>
<filter id="filter2_d_545_155" x="15.2554" y="13.4972" width="10.6665" height="11.6667" filterUnits="userSpaceOnUse" color-interpolation-filters="sRGB">
<feFlood flood-opacity="0" result="BackgroundImageFix"/>
<feColorMatrix in="SourceAlpha" type="matrix" values="0 0 0 0 0 0 0 0 0 0 0 0 0 0 0 0 0 0 127 0" result="hardAlpha"/>
<feOffset dy="1"/>
<feComposite in2="hardAlpha" operator="out"/>
<feColorMatrix type="matrix" values="0 0 0 0 0.583333 0 0 0 0 0.157389 0 0 0 0 0.128819 0 0 0 1 0"/>
<feBlend mode="normal" in2="BackgroundImageFix" result="effect1_dropShadow_545_155"/>
<feBlend mode="normal" in="SourceGraphic" in2="effect1_dropShadow_545_155" result="shape"/>
</filter>
</defs>
</svg>
