<svg width="15" height="22" viewBox="0 0 15 22" fill="none" xmlns="http://www.w3.org/2000/svg">
<path d="M7.69838 1.16376C7.0164 1.16376 6.36234 1.43467 5.88011 1.91691C5.39787 2.39915 5.12695 3.0532 5.12695 3.73519V10.5923C5.12695 11.2743 5.39787 11.9284 5.88011 12.4106C6.36234 12.8928 7.0164 13.1638 7.69838 13.1638C8.38037 13.1638 9.03442 12.8928 9.51666 12.4106C9.99889 11.9284 10.2698 11.2743 10.2698 10.5923V3.73519C10.2698 3.0532 9.99889 2.39915 9.51666 1.91691C9.03442 1.43467 8.38037 1.16376 7.69838 1.16376Z" fill="white" stroke="#828282" stroke-width="2" stroke-linecap="round" stroke-linejoin="round"/>
<path d="M13.6982 8.87804V10.5923C13.6982 12.1836 13.0661 13.7098 11.9409 14.835C10.8157 15.9602 9.28954 16.5923 7.69824 16.5923C6.10694 16.5923 4.58082 15.9602 3.4556 14.835C2.33038 13.7098 1.69824 12.1836 1.69824 10.5923V8.87804" stroke="#828282" stroke-width="2" stroke-linecap="round" stroke-linejoin="round"/>
<path d="M7.69824 16.5923V20.0209" stroke="#828282" stroke-width="2" stroke-linecap="round" stroke-linejoin="round"/>
</svg>
